# xmcd CD database file
#
# Track frame offsets:
#	150
#	50266
#	86041
#	113571
#	122548
#	145337
#	153444
#
# Disc length: 2405 seconds
#
# Revision: 0
# Processed by: cddbd v1.5PL3 Copyright (c) Steve Scherf et al.
# Submitted via: CDex 1.51
#
DISCID=53096307
DTITLE=Dave Brubeck - Truth Is Fallen
DYEAR=1971
DGENRE=Jazz
TTITLE0=Prelude, Merciful men are taken away
TTITLE1=Truth is fallen
TTITLE2=Oh, that my head were waters, Speak out (duet), I called and no one answered
TTITLE3=Yea truth faileth
TTITLE4=Truth (Planets are spinning)
TTITLE5=Is the lord's hand shortened ?
TTITLE6=Arise !
EXTD=YEAR: 1971
EXTT0=
EXTT1=
EXTT2=
EXTT3=
EXTT4=
EXTT5=
EXTT6=
PLAYORDER=
